<svg viewBox="0 0 32 32" xml:space="preserve" xmlns="http://www.w3.org/2000/svg" enable-background="new 0 0 32 32"><path d="M17 0C8.7 0 2 6.7 2 15c0 3.4 1.1 6.6 3.2 9.2l-2.1 6.4c-.1.4 0 .8.3 1.1.1.2.4.3.6.3.1 0 .3 0 .4-.1l6.9-3.1c1.8.8 3.7 1.2 5.7 1.2 8.3 0 15-6.7 15-15S25.3 0 17 0zm8.7 20.5c-.4 1.2-1.9 2.2-3.2 2.4-.3.1-.6.1-1 .1-.8 0-2-.2-4.1-1.1-2.4-1-4.8-3.1-6.7-5.8V16c-.6-.9-1.7-2.6-1.7-4.4 0-2.2 1.1-3.3 1.5-3.8.5-.5 1.2-.8 2-.8h.5c.7 0 1.2.2 1.7 1.2l.4.8c.3.8.7 1.7.8 1.8.3.6.3 1.1 0 1.6-.1.3-.3.5-.5.7-.1.2-.2.3-.3.3l-.2.2c.3.5.9 1.4 1.7 2.1 1.2 1.1 2.1 1.4 2.6 1.6.2-.2.4-.6.7-.9l.1-.2c.5-.7 1.3-.9 2.1-.6.4.2 2.6 1.2 2.6 1.2l.2.1c.3.2.7.3.9.7.4.9.1 2.2-.1 2.9z" fill="#ffffff" class="fill-000000"></path></svg>